<svg width="16" height="16" viewBox="0 0 16 16" xmlns="http://www.w3.org/2000/svg" xmlns:xlink="http://www.w3.org/1999/xlink"><title>mask-icon</title><defs><path id="a" d="M4.083 14H0V0h8.167v14H4.083z"/><path id="c" d="M0 14h7V0H0z"/></defs><g fill="none" fill-rule="evenodd"><g transform="translate(1 1)"><mask id="b" fill="#fff"><use xlink:href="#a"/></mask><path d="M8.167 14H5.84L1.573 1.577C1.358 1.385.668 1.107 0 .895V0c.927.043 2.026.107 3.038.107.948 0 2.198-.043 3.06-.107v.916c-.754.128-1.25.277-1.55.426l-.066.214L8.167 14z" fill="#000" mask="url(#b)"/></g><g transform="translate(8 1)"><mask id="d" fill="#fff"><use xlink:href="#c"/></mask><path d="M.917 11.128L3.79 1.574l-.083-.212c-.252-.15-.756-.298-1.406-.447V0c.882.064 1.658.106 2.455.106C5.3.106 6.33.064 7 .02v.895c-.776.213-1.07.383-1.343.574L1.483 14H0l.917-2.872z" fill="#000" mask="url(#d)"/></g></g></svg>